<svg id="Layer_1" data-name="Layer 1" xmlns="http://www.w3.org/2000/svg" viewBox="0 0 120.78 117.79"><defs><style>.cls-1,.cls-2{fill:#231e1b;}.cls-1{fill-rule:evenodd;}</style></defs><title>GitHub-Mark</title><path class="cls-1" d="M350.61,58.43a60.39,60.39,0,0,0-19.09,117.69c3,.56,4.12-1.31,4.12-2.9,0-1.44-.05-6.2-.08-11.25-16.8,3.66-20.34-7.12-20.34-7.12-2.75-7-6.71-8.84-6.71-8.84-5.48-3.75.42-3.67.42-3.67,6.06.43,9.25,6.22,9.25,6.22,5.39,9.24,14.13,6.57,17.58,5,.54-3.9,2.1-6.56,3.83-8.07-13.41-1.53-27.51-6.71-27.51-29.85a23.3,23.3,0,0,1,6.22-16.2c-.63-1.53-2.7-7.67.58-16,0,0,5.07-1.62,16.61,6.19a57.36,57.36,0,0,1,30.25,0c11.52-7.81,16.59-6.19,16.59-6.19,3.28,8.32,1.22,14.46.59,16a23.3,23.3,0,0,1,6.21,16.2c0,23.2-14.12,28.31-27.57,29.8,2.17,1.87,4.1,5.55,4.1,11.18,0,8.08-.07,14.59-.07,16.58,0,1.6,1.08,3.49,4.14,2.89A60.39,60.39,0,0,0,350.61,58.43Z" transform="translate(-290.22 -58.43)"/><path class="cls-2" d="M313.09,145.13c-.13.31-.6.39-1,.19s-.69-.61-.54-.91.6-.39,1-.19.68.61.53.91Zm-.74-.55" transform="translate(-290.22 -58.43)"/><path class="cls-2" d="M315.54,147.86c-.29.27-.85.15-1.23-.28a.92.92,0,0,1-.18-1.25c.3-.27.84-.14,1.24.28s.47,1,.17,1.25Zm-.58-.62" transform="translate(-290.22 -58.43)"/><path class="cls-2" d="M317.92,151.34c-.37.26-1,0-1.35-.52s-.37-1.18,0-1.44,1,0,1.35.51.37,1.19,0,1.45Zm0,0" transform="translate(-290.22 -58.43)"/><path class="cls-2" d="M321.18,154.7c-.33.37-1,.27-1.55-.23s-.67-1.18-.34-1.54,1-.27,1.56.23.68,1.18.33,1.54Zm0,0" transform="translate(-290.22 -58.43)"/><path class="cls-2" d="M325.68,156.65c-.14.47-.82.69-1.51.49s-1.13-.76-1-1.24.83-.7,1.51-.49,1.13.76,1,1.24Zm0,0" transform="translate(-290.22 -58.43)"/><path class="cls-2" d="M330.62,157c0,.5-.56.91-1.28.92s-1.3-.38-1.31-.87.57-.91,1.29-.93,1.3.39,1.3.88Zm0,0" transform="translate(-290.22 -58.43)"/><path class="cls-2" d="M335.22,156.23c.09.49-.41,1-1.12,1.12s-1.35-.17-1.44-.66.42-1,1.12-1.12,1.35.17,1.44.66Zm0,0" transform="translate(-290.22 -58.43)"/></svg>