<svg id="Layer_1" data-name="Layer 1" xmlns="http://www.w3.org/2000/svg" viewBox="0 0 199.43 477.93"><defs><style>.cls-1{fill:#fff;stroke-miterlimit:10;}.cls-2{font-size:27.35px;fill:#1d1d1b;font-family:Helvetica;}.cls-3{fill:#f8fcff;}.cls-4{fill:#c6dbef;}.cls-5{fill:#deebf7;}.cls-6{fill:#9fcae2;}.cls-7{fill:#4392c6;}.cls-8{fill:#6baed6;}.cls-9{fill:#0a4791;}.cls-10{fill:#2272b6;}.cls-11{fill:#d9d9d9;}.cls-12{letter-spacing:0.02em;}</style></defs><title>legendCounty</title><rect class="cls-1" x="0.5" y="0.5" width="198.43" height="476.93"/><text class="cls-2" transform="translate(91.91 118.72)">1</text><text class="cls-2" transform="translate(91.91 162.06)">100</text><text class="cls-2" transform="translate(91.91 205.4)">250</text><text class="cls-2" transform="translate(91.91 248.74)">500</text><text class="cls-2" transform="translate(91.91 292.09)">1000</text><text class="cls-2" transform="translate(91.91 335.43)">2500</text><text class="cls-2" transform="translate(91.91 378.77)">5000</text><text class="cls-2" transform="translate(91.91 422.11)">10000</text><rect class="cls-3" x="37.36" y="110.68" width="43.08" height="43.08"/><rect class="cls-4" x="37.36" y="196.83" width="43.08" height="43.08"/><rect class="cls-5" x="37.36" y="153.76" width="43.08" height="43.08"/><rect class="cls-6" x="37.36" y="239.91" width="43.08" height="43.08"/><rect class="cls-7" x="37.36" y="326.06" width="43.08" height="43.08"/><rect class="cls-8" x="37.36" y="282.98" width="43.08" height="43.08"/><rect class="cls-9" x="37.36" y="412.21" width="43.08" height="43.08"/><rect class="cls-10" x="37.36" y="369.14" width="43.08" height="43.08"/><rect class="cls-11" x="37.36" y="67.6" width="43.08" height="43.08"/><text class="cls-2" transform="translate(33.09 42.86)">人 /<tspan class="cls-12" x="50" y="0">k</tspan><tspan x="65" y="0">m²</tspan></text></svg>